<?xml version="1.0" encoding="UTF-8"?><svg xmlns="http://www.w3.org/2000/svg" xmlns:xlink="http://www.w3.org/1999/xlink" fill-opacity="1" color-rendering="auto" color-interpolation="auto" text-rendering="auto" stroke="black" stroke-linecap="square" width="1200" stroke-miterlimit="10" shape-rendering="auto" stroke-opacity="1" fill="black" stroke-dasharray="none" font-weight="normal" stroke-width="1" height="1020" font-family="'Dialog'" font-style="normal" stroke-linejoin="miter" font-size="12px" stroke-dashoffset="0" image-rendering="auto">
  <!--Generated by ySVG 2.5-->
  <defs id="genericDefs"/>
  <g>
    <g fill="white" text-rendering="geometricPrecision" shape-rendering="geometricPrecision" transform="translate(-215,-18)" stroke="white">
      <rect x="215" width="1200" height="1020" y="18" clip-path="url(#clipPath2)" stroke="none"/>
    </g>
    <g font-size="18px" stroke-linecap="butt" transform="matrix(0,1,-1,0,1171.6135,785.7144)" text-rendering="geometricPrecision" font-family="sans-serif" shape-rendering="geometricPrecision" stroke-miterlimit="1.45">
      <text x="2" xml:space="preserve" y="20.0967" clip-path="url(#clipPath3)" stroke="none">Data Tier(Oracle 11g XE)</text>
    </g>
    <g text-rendering="geometricPrecision" stroke-miterlimit="1.45" shape-rendering="geometricPrecision" transform="matrix(1,0,0,1,-215,-18)" stroke-linecap="butt">
      <rect fill="none" x="230" width="1170" height="231" y="791.75" clip-path="url(#clipPath2)"/>
    </g>
    <g text-rendering="geometricPrecision" shape-rendering="geometricPrecision" transform="matrix(3.2675,0,0,3.2053,544.375,792.4435)">
      <g clip-path="url(#clipPath4)">
        <svg xml:space="preserve" opacity="1" writing-mode="lr-tb" stop-color="rgb(0, 0, 0)" shape-rendering="auto" glyph-orientation-horizontal="0deg" color-profile="auto" lighting-color="rgb(255, 255, 255)" color="rgb(0, 0, 0)" font-weight="400" alignment-baseline="auto" font-style="normal" version="1.1" color-interpolation-filters="linearrgb" text-anchor="start" stroke-linecap="butt" color-interpolation="srgb" font-variant="normal" word-spacing="normal" fill-opacity="1" text-rendering="auto" clip-path="none" text-decoration="none" letter-spacing="normal" viewBox="0 0 40 48" glyph-orientation-vertical="auto" display="inline" font-size-adjust="none" overflow="visible" fill="rgb(0, 0, 0)" font-stretch="normal" stroke-dasharray="none" stroke-miterlimit="4" stop-opacity="1" color-rendering="auto" font-size="12" pointer-events="visiblepainted" mask="none" direction="ltr" baseline-shift="baseline" enable-background="new 0 0 40 48" fill-rule="nonzero" image-rendering="auto" stroke-dashoffset="0" width="40px" marker-end="none" clip="auto" cursor="auto" stroke="none" filter="none" visibility="visible" kerning="auto" stroke-width="1" font-family="&quot;Arial&quot;,&quot;Helvetica&quot;,sans-serif" flood-opacity="1" clip-rule="nonzero" src="none" height="48px" unicode-bidi="normal" stroke-linejoin="miter" stroke-opacity="1" flood-color="rgb(0, 0, 0)" dominant-baseline="auto" marker-start="none" x="0px" marker-mid="none" y="0px">
<defs>
<clipPath clipPathUnits="userSpaceOnUse" id="clipPath1">
              <path d="M0 0 L1200 0 L1200 1020 L0 1020 L0 0 Z"/>
            </clipPath>
            <clipPath clipPathUnits="userSpaceOnUse" id="clipPath2">
              <path d="M215 18 L1415 18 L1415 1038 L215 1038 L215 18 Z"/>
            </clipPath>
            <clipPath clipPathUnits="userSpaceOnUse" id="clipPath3">
              <path d="M-785.7144 1171.6135 L-785.7144 -28.3865 L234.2856 -28.3865 L234.2856 1171.6135 L-785.7144 1171.6135 Z"/>
            </clipPath>
            <clipPath clipPathUnits="userSpaceOnUse" id="clipPath4">
              <path d="M-166.6021 -247.2307 L200.6494 -247.2307 L200.6494 70.9943 L-166.6021 70.9943 L-166.6021 -247.2307 Z"/>
            </clipPath>
            <clipPath clipPathUnits="userSpaceOnUse" id="clipPath5">
              <path d="M-364.736 1178.4512 L-364.736 -21.5488 L655.264 -21.5488 L655.264 1178.4512 L-364.736 1178.4512 Z"/>
            </clipPath>
            <clipPath clipPathUnits="userSpaceOnUse" id="clipPath6">
              <path d="M-85.6506 794.75 L-85.6506 -405.25 L934.3494 -405.25 L934.3494 794.75 L-85.6506 794.75 Z"/>
            </clipPath>
            <clipPath clipPathUnits="userSpaceOnUse" id="clipPath7">
              <path d="M-56.6554 1174.1006 L-56.6554 -25.8994 L963.3445 -25.8994 L963.3445 1174.1006 L-56.6554 1174.1006 Z"/>
            </clipPath>
            <clipPath clipPathUnits="userSpaceOnUse" id="clipPath8">
              <path d="M-690.8255 704.8008 L-690.8255 -495.1992 L329.1745 -495.1992 L329.1745 704.8008 L-690.8255 704.8008 Z"/>
            </clipPath>
            <clipPath clipPathUnits="userSpaceOnUse" id="clipPath9">
              <path d="M283.7508 -178.0618 L283.7508 1021.9382 L-736.2492 1021.9382 L-736.2492 -178.0618 L283.7508 -178.0618 Z"/>
            </clipPath>
          </defs>
<linearGradient gradientTransform="matrix(1 0 0 1 -370.2002 -614.5742)" x1="370.2002" x2="409.4502" gradientUnits="userSpaceOnUse" y1="655.0938" y2="655.0938" id="svg1.SVGID_1_">
	<stop offset="0" style="stop-color:#4D4D4D"/>
	<stop offset="0.0558" style="stop-color:#5F5F5F"/>
	<stop offset="0.2103" style="stop-color:#8D8D8D"/>
	<stop offset="0.3479" style="stop-color:#AEAEAE"/>
	<stop offset="0.4623" style="stop-color:#C2C2C2"/>
	<stop offset="0.5394" style="stop-color:#C9C9C9"/>
	<stop offset="0.6247" style="stop-color:#C5C5C5"/>
	<stop offset="0.7072" style="stop-color:#BABABA"/>
	<stop offset="0.7885" style="stop-color:#A6A6A6"/>
	<stop offset="0.869" style="stop-color:#8B8B8B"/>
	<stop offset="0.9484" style="stop-color:#686868"/>
	<stop offset="1" style="stop-color:#4D4D4D"/>
</linearGradient>
<path fill="url(#svg1.SVGID_1_)" d="M19.625,37.613C8.787,37.613,0,35.738,0,33.425v10c0,2.313,8.787,4.188,19.625,4.188  c10.839,0,19.625-1.875,19.625-4.188v-10C39.25,35.738,30.464,37.613,19.625,37.613z"/>
<linearGradient gradientTransform="matrix(1 0 0 1 -370.2002 -614.5742)" x1="370.2002" x2="409.4502" gradientUnits="userSpaceOnUse" y1="649.0938" y2="649.0938" id="svg1.SVGID_2_">
	<stop offset="0" style="stop-color:#B3B3B3"/>
	<stop offset="0.0171" style="stop-color:#B6B6B6"/>
	<stop offset="0.235" style="stop-color:#D7D7D7"/>
	<stop offset="0.4168" style="stop-color:#EBEBEB"/>
	<stop offset="0.5394" style="stop-color:#F2F2F2"/>
	<stop offset="0.6579" style="stop-color:#EEEEEE"/>
	<stop offset="0.7724" style="stop-color:#E3E3E3"/>
	<stop offset="0.8853" style="stop-color:#CFCFCF"/>
	<stop offset="0.9965" style="stop-color:#B4B4B4"/>
	<stop offset="1" style="stop-color:#B3B3B3"/>
</linearGradient>
<path fill="url(#svg1.SVGID_2_)" d="M19.625,37.613c10.839,0,19.625-1.875,19.625-4.188l-1.229-2c0,2.168-8.235,3.927-18.396,3.927  c-9.481,0-17.396-1.959-18.396-3.927l-1.229,2C0,35.738,8.787,37.613,19.625,37.613z"/>
<linearGradient gradientTransform="matrix(1 0 0 1 -370.2002 -614.5742)" x1="371.4297" x2="408.2217" gradientUnits="userSpaceOnUse" y1="646" y2="646" id="svg1.SVGID_3_">
	<stop offset="0" style="stop-color:#C9C9C9"/>
	<stop offset="1" style="stop-color:#808080"/>
</linearGradient>
<ellipse rx="18.396" fill="url(#svg1.SVGID_3_)" ry="3.926" cx="19.625" cy="31.425"/>
<linearGradient gradientTransform="matrix(1 0 0 1 -370.2002 -614.5742)" x1="370.2002" x2="409.4502" gradientUnits="userSpaceOnUse" y1="641.0938" y2="641.0938" id="svg1.SVGID_4_">
	<stop offset="0" style="stop-color:#4D4D4D"/>
	<stop offset="0.0558" style="stop-color:#5F5F5F"/>
	<stop offset="0.2103" style="stop-color:#8D8D8D"/>
	<stop offset="0.3479" style="stop-color:#AEAEAE"/>
	<stop offset="0.4623" style="stop-color:#C2C2C2"/>
	<stop offset="0.5394" style="stop-color:#C9C9C9"/>
	<stop offset="0.6247" style="stop-color:#C5C5C5"/>
	<stop offset="0.7072" style="stop-color:#BABABA"/>
	<stop offset="0.7885" style="stop-color:#A6A6A6"/>
	<stop offset="0.869" style="stop-color:#8B8B8B"/>
	<stop offset="0.9484" style="stop-color:#686868"/>
	<stop offset="1" style="stop-color:#4D4D4D"/>
</linearGradient>
<path fill="url(#svg1.SVGID_4_)" d="M19.625,23.613C8.787,23.613,0,21.738,0,19.425v10c0,2.313,8.787,4.188,19.625,4.188  c10.839,0,19.625-1.875,19.625-4.188v-10C39.25,21.738,30.464,23.613,19.625,23.613z"/>
<linearGradient gradientTransform="matrix(1 0 0 1 -370.2002 -614.5742)" x1="370.2002" x2="409.4502" gradientUnits="userSpaceOnUse" y1="635.0938" y2="635.0938" id="svg1.SVGID_5_">
	<stop offset="0" style="stop-color:#B3B3B3"/>
	<stop offset="0.0171" style="stop-color:#B6B6B6"/>
	<stop offset="0.235" style="stop-color:#D7D7D7"/>
	<stop offset="0.4168" style="stop-color:#EBEBEB"/>
	<stop offset="0.5394" style="stop-color:#F2F2F2"/>
	<stop offset="0.6579" style="stop-color:#EEEEEE"/>
	<stop offset="0.7724" style="stop-color:#E3E3E3"/>
	<stop offset="0.8853" style="stop-color:#CFCFCF"/>
	<stop offset="0.9965" style="stop-color:#B4B4B4"/>
	<stop offset="1" style="stop-color:#B3B3B3"/>
</linearGradient>
<path fill="url(#svg1.SVGID_5_)" d="M19.625,23.613c10.839,0,19.625-1.875,19.625-4.188l-1.229-2c0,2.168-8.235,3.926-18.396,3.926  c-9.481,0-17.396-1.959-18.396-3.926l-1.229,2C0,21.738,8.787,23.613,19.625,23.613z"/>
<linearGradient gradientTransform="matrix(1 0 0 1 -370.2002 -614.5742)" x1="371.4297" x2="408.2217" gradientUnits="userSpaceOnUse" y1="632" y2="632" id="svg1.SVGID_6_">
	<stop offset="0" style="stop-color:#C9C9C9"/>
	<stop offset="1" style="stop-color:#808080"/>
</linearGradient>
<ellipse rx="18.396" fill="url(#svg1.SVGID_6_)" ry="3.926" cx="19.625" cy="17.426"/>
<linearGradient gradientTransform="matrix(1 0 0 1 -370.2002 -614.5742)" x1="370.2002" x2="409.4502" gradientUnits="userSpaceOnUse" y1="627.5938" y2="627.5938" id="svg1.SVGID_7_">
	<stop offset="0" style="stop-color:#4D4D4D"/>
	<stop offset="0.0558" style="stop-color:#5F5F5F"/>
	<stop offset="0.2103" style="stop-color:#8D8D8D"/>
	<stop offset="0.3479" style="stop-color:#AEAEAE"/>
	<stop offset="0.4623" style="stop-color:#C2C2C2"/>
	<stop offset="0.5394" style="stop-color:#C9C9C9"/>
	<stop offset="0.6247" style="stop-color:#C5C5C5"/>
	<stop offset="0.7072" style="stop-color:#BABABA"/>
	<stop offset="0.7885" style="stop-color:#A6A6A6"/>
	<stop offset="0.869" style="stop-color:#8B8B8B"/>
	<stop offset="0.9484" style="stop-color:#686868"/>
	<stop offset="1" style="stop-color:#4D4D4D"/>
</linearGradient>
<path fill="url(#svg1.SVGID_7_)" d="M19.625,10.113C8.787,10.113,0,8.238,0,5.925v10c0,2.313,8.787,4.188,19.625,4.188  c10.839,0,19.625-1.875,19.625-4.188v-10C39.25,8.238,30.464,10.113,19.625,10.113z"/>
<linearGradient gradientTransform="matrix(1 0 0 1 -370.2002 -614.5742)" x1="370.2002" x2="409.4502" gradientUnits="userSpaceOnUse" y1="621.5938" y2="621.5938" id="svg1.SVGID_8_">
	<stop offset="0" style="stop-color:#B3B3B3"/>
	<stop offset="0.0171" style="stop-color:#B6B6B6"/>
	<stop offset="0.235" style="stop-color:#D7D7D7"/>
	<stop offset="0.4168" style="stop-color:#EBEBEB"/>
	<stop offset="0.5394" style="stop-color:#F2F2F2"/>
	<stop offset="0.6579" style="stop-color:#EEEEEE"/>
	<stop offset="0.7724" style="stop-color:#E3E3E3"/>
	<stop offset="0.8853" style="stop-color:#CFCFCF"/>
	<stop offset="0.9965" style="stop-color:#B4B4B4"/>
	<stop offset="1" style="stop-color:#B3B3B3"/>
</linearGradient>
<path fill="url(#svg1.SVGID_8_)" d="M19.625,10.113c10.839,0,19.625-1.875,19.625-4.188l-1.229-2c0,2.168-8.235,3.926-18.396,3.926  c-9.481,0-17.396-1.959-18.396-3.926L0,5.925C0,8.238,8.787,10.113,19.625,10.113z"/>
<linearGradient gradientTransform="matrix(1 0 0 1 -370.2002 -614.5742)" x1="371.4297" x2="408.2217" gradientUnits="userSpaceOnUse" y1="618.5" y2="618.5" id="svg1.SVGID_9_">
	<stop offset="0" style="stop-color:#C9C9C9"/>
	<stop offset="1" style="stop-color:#808080"/>
</linearGradient>
<ellipse rx="18.396" fill="url(#svg1.SVGID_9_)" ry="3.926" cx="19.625" cy="3.926"/>
<path fill="#FFFFFF" d="M31.291,46.792c0,0-4.313,0.578-7.249,0.694  C20.917,47.613,15,47.613,15,47.613l-2.443-10.279l-0.119-2.283l-1.231-1.842L9.789,23.024l-0.082-0.119L9.3,20.715l-1.45-1.44  L5.329,8.793c0,0,5.296,0.882,7.234,1.07s8.375,0.25,8.375,0.25l3,9.875l-0.25,1.313l1.063,2.168l2.312,9.644l-0.375,1.875  l1.627,2.193L31.291,46.792z" enable-background="new    " opacity="0.24"/>
</svg>
      </g>
    </g>
    <g font-size="18px" stroke-linecap="butt" transform="matrix(1,0,0,1,-215,-18)" text-rendering="geometricPrecision" font-family="sans-serif" shape-rendering="geometricPrecision" stroke-miterlimit="1.45">
      <text x="766.9688" xml:space="preserve" y="987.1532" clip-path="url(#clipPath2)" stroke="none">ApplicationDB</text>
    </g>
    <g font-size="18px" stroke-linecap="butt" transform="matrix(0,1,-1,0,1178.4512,364.736)" text-rendering="geometricPrecision" font-family="sans-serif" shape-rendering="geometricPrecision" stroke-miterlimit="1.45">
      <text x="2" xml:space="preserve" y="20.0967" clip-path="url(#clipPath5)" stroke="none">Application Tier(Apache Server)</text>
    </g>
    <g text-rendering="geometricPrecision" stroke-miterlimit="1.45" shape-rendering="geometricPrecision" transform="matrix(1,0,0,1,-215,-18)" stroke-linecap="butt">
      <rect fill="none" x="230" width="1170" height="381" y="321.7917" clip-path="url(#clipPath2)"/>
    </g>
    <g fill="rgb(255,204,0)" text-rendering="geometricPrecision" shape-rendering="geometricPrecision" transform="matrix(1,0,0,1,-215,-18)" stroke="rgb(255,204,0)">
      <rect x="621.75" width="167" height="64" y="386.2917" clip-path="url(#clipPath2)" stroke="none"/>
    </g>
    <g text-rendering="geometricPrecision" stroke-miterlimit="1.45" shape-rendering="geometricPrecision" font-family="sans-serif" transform="matrix(1,0,0,1,-215,-18)" stroke-linecap="butt">
      <text x="669.2236" xml:space="preserve" y="423.0055" clip-path="url(#clipPath2)" stroke="none">Login Module</text>
      <rect fill="none" x="621.75" width="167" height="64" y="386.2917" clip-path="url(#clipPath2)"/>
    </g>
    <g fill="rgb(255,204,0)" text-rendering="geometricPrecision" shape-rendering="geometricPrecision" transform="matrix(1,0,0,1,-215,-18)" stroke="rgb(255,204,0)">
      <rect x="621.75" width="167" height="64" y="480.2917" clip-path="url(#clipPath2)" stroke="none"/>
    </g>
    <g text-rendering="geometricPrecision" stroke-miterlimit="1.45" shape-rendering="geometricPrecision" font-family="sans-serif" transform="matrix(1,0,0,1,-215,-18)" stroke-linecap="butt">
      <text x="664.2256" xml:space="preserve" y="517.0056" clip-path="url(#clipPath2)" stroke="none">SignUp Module</text>
      <rect fill="none" x="621.75" width="167" height="64" y="480.2917" clip-path="url(#clipPath2)"/>
    </g>
    <g fill="rgb(255,204,0)" text-rendering="geometricPrecision" shape-rendering="geometricPrecision" transform="matrix(1,0,0,1,-215,-18)" stroke="rgb(255,204,0)">
      <rect x="846.75" width="167" height="64" y="386.2917" clip-path="url(#clipPath2)" stroke="none"/>
    </g>
    <g text-rendering="geometricPrecision" stroke-miterlimit="1.45" shape-rendering="geometricPrecision" font-family="sans-serif" transform="matrix(1,0,0,1,-215,-18)" stroke-linecap="butt">
      <text x="897.9004" xml:space="preserve" y="423.0055" clip-path="url(#clipPath2)" stroke="none">Sort Module</text>
      <rect fill="none" x="846.75" width="167" height="64" y="386.2917" clip-path="url(#clipPath2)"/>
    </g>
    <g fill="rgb(255,204,0)" text-rendering="geometricPrecision" shape-rendering="geometricPrecision" transform="matrix(1,0,0,1,-215,-18)" stroke="rgb(255,204,0)">
      <rect x="846.75" width="167" height="64" y="480.2917" clip-path="url(#clipPath2)" stroke="none"/>
    </g>
    <g text-rendering="geometricPrecision" stroke-miterlimit="1.45" shape-rendering="geometricPrecision" font-family="sans-serif" transform="matrix(1,0,0,1,-215,-18)" stroke-linecap="butt">
      <text x="889.8936" xml:space="preserve" y="517.0056" clip-path="url(#clipPath2)" stroke="none">Search Module</text>
      <rect fill="none" x="846.75" width="167" height="64" y="480.2917" clip-path="url(#clipPath2)"/>
    </g>
    <g fill="rgb(255,204,0)" text-rendering="geometricPrecision" shape-rendering="geometricPrecision" transform="matrix(1,0,0,1,-215,-18)" stroke="rgb(255,204,0)">
      <rect x="621.75" width="617" height="64" y="591.2917" clip-path="url(#clipPath2)" stroke="none"/>
    </g>
    <g text-rendering="geometricPrecision" stroke-miterlimit="1.45" shape-rendering="geometricPrecision" font-family="sans-serif" transform="matrix(1,0,0,1,-215,-18)" stroke-linecap="butt">
      <text x="865.2139" xml:space="preserve" y="628.0056" clip-path="url(#clipPath2)" stroke="none">Database Acces Module</text>
      <rect fill="none" x="621.75" width="617" height="64" y="591.2917" clip-path="url(#clipPath2)"/>
    </g>
    <g fill="rgb(255,204,0)" text-rendering="geometricPrecision" shape-rendering="geometricPrecision" transform="matrix(1,0,0,1,-215,-18)" stroke="rgb(255,204,0)">
      <rect x="1071.75" width="167" height="64" y="480.2917" clip-path="url(#clipPath2)" stroke="none"/>
    </g>
    <g text-rendering="geometricPrecision" stroke-miterlimit="1.45" shape-rendering="geometricPrecision" font-family="sans-serif" transform="matrix(1,0,0,1,-215,-18)" stroke-linecap="butt">
      <text x="1087.5479" xml:space="preserve" y="517.0056" clip-path="url(#clipPath2)" stroke="none">File Management Module</text>
      <rect fill="none" x="1071.75" width="167" height="64" y="480.2917" clip-path="url(#clipPath2)"/>
    </g>
    <g fill="rgb(255,204,0)" text-rendering="geometricPrecision" shape-rendering="geometricPrecision" transform="matrix(1,0,0,1,-215,-18)" stroke="rgb(255,204,0)">
      <rect x="1071.75" width="167" height="64" y="386.2917" clip-path="url(#clipPath2)" stroke="none"/>
    </g>
    <g text-rendering="geometricPrecision" stroke-miterlimit="1.45" shape-rendering="geometricPrecision" font-family="sans-serif" transform="matrix(1,0,0,1,-215,-18)" stroke-linecap="butt">
      <text x="1086.543" xml:space="preserve" y="423.0055" clip-path="url(#clipPath2)" stroke="none">Special Container Module</text>
      <rect fill="none" x="1071.75" width="167" height="64" y="386.2917" clip-path="url(#clipPath2)"/>
    </g>
    <g fill="rgb(255,204,0)" text-rendering="geometricPrecision" shape-rendering="geometricPrecision" transform="matrix(1,0,0,1,-215,-18)" stroke="rgb(255,204,0)">
      <rect x="277.75" width="128.25" height="111" y="386.2917" clip-path="url(#clipPath2)" stroke="none"/>
    </g>
    <g text-rendering="geometricPrecision" stroke-miterlimit="1.45" shape-rendering="geometricPrecision" font-family="sans-serif" transform="matrix(1,0,0,1,-215,-18)" stroke-linecap="butt">
      <text x="315.5254" xml:space="preserve" y="439.1549" clip-path="url(#clipPath2)" stroke="none">Facebook</text>
      <text x="322.1963" xml:space="preserve" y="453.8561" clip-path="url(#clipPath2)" stroke="none">Module</text>
      <rect fill="none" x="277.75" width="128.25" height="111" y="386.2917" clip-path="url(#clipPath2)"/>
    </g>
    <g fill="rgb(255,204,0)" text-rendering="geometricPrecision" shape-rendering="geometricPrecision" transform="matrix(1,0,0,1,-215,-18)" stroke="rgb(255,204,0)">
      <rect x="449.75" width="128.25" height="111" y="386.2917" clip-path="url(#clipPath2)" stroke="none"/>
    </g>
    <g text-rendering="geometricPrecision" stroke-miterlimit="1.45" shape-rendering="geometricPrecision" font-family="sans-serif" transform="matrix(1,0,0,1,-215,-18)" stroke-linecap="butt">
      <text x="495.875" xml:space="preserve" y="439.1549" clip-path="url(#clipPath2)" stroke="none">Twitter</text>
      <text x="494.1963" xml:space="preserve" y="453.8561" clip-path="url(#clipPath2)" stroke="none">Module</text>
      <rect fill="none" x="449.75" width="128.25" height="111" y="386.2917" clip-path="url(#clipPath2)"/>
    </g>
    <g fill="rgb(255,204,0)" text-rendering="geometricPrecision" shape-rendering="geometricPrecision" transform="matrix(1,0,0,1,-215,-18)" stroke="rgb(255,204,0)">
      <rect x="277.75" width="128.25" height="111" y="544.2917" clip-path="url(#clipPath2)" stroke="none"/>
    </g>
    <g text-rendering="geometricPrecision" stroke-miterlimit="1.45" shape-rendering="geometricPrecision" font-family="sans-serif" transform="matrix(1,0,0,1,-215,-18)" stroke-linecap="butt">
      <text x="308.8486" xml:space="preserve" y="597.155" clip-path="url(#clipPath2)" stroke="none">SoundCloud</text>
      <text x="322.1963" xml:space="preserve" y="611.8561" clip-path="url(#clipPath2)" stroke="none">Module</text>
      <rect fill="none" x="277.75" width="128.25" height="111" y="544.2917" clip-path="url(#clipPath2)"/>
    </g>
    <g fill="rgb(255,204,0)" text-rendering="geometricPrecision" shape-rendering="geometricPrecision" transform="matrix(1,0,0,1,-215,-18)" stroke="rgb(255,204,0)">
      <rect x="449.75" width="128.25" height="111" y="544.2917" clip-path="url(#clipPath2)" stroke="none"/>
    </g>
    <g text-rendering="geometricPrecision" stroke-miterlimit="1.45" shape-rendering="geometricPrecision" font-family="sans-serif" transform="matrix(1,0,0,1,-215,-18)" stroke-linecap="butt">
      <text x="491.5215" xml:space="preserve" y="597.155" clip-path="url(#clipPath2)" stroke="none">Youtube</text>
      <text x="494.1963" xml:space="preserve" y="611.8561" clip-path="url(#clipPath2)" stroke="none">Module</text>
      <rect fill="none" x="449.75" width="128.25" height="111" y="544.2917" clip-path="url(#clipPath2)"/>
    </g>
    <g font-size="18px" stroke-linecap="butt" transform="matrix(0,1,-1,0,794.75,85.6506)" text-rendering="geometricPrecision" font-family="sans-serif" shape-rendering="geometricPrecision" stroke-miterlimit="1.45">
      <text x="2" xml:space="preserve" y="20.0967" clip-path="url(#clipPath6)" stroke="none">External</text>
    </g>
    <g text-rendering="geometricPrecision" stroke-miterlimit="1.45" shape-rendering="geometricPrecision" transform="matrix(1,0,0,1,-215,-18)" stroke-linecap="butt">
      <rect fill="none" x="230" width="783.75" height="209.6667" y="33.8333" clip-path="url(#clipPath2)"/>
    </g>
    <g font-size="18px" stroke-linecap="butt" transform="matrix(0,1,-1,0,1174.1006,56.6554)" text-rendering="geometricPrecision" font-family="sans-serif" shape-rendering="geometricPrecision" stroke-miterlimit="1.45">
      <text x="2" xml:space="preserve" y="20.0967" clip-path="url(#clipPath7)" stroke="none">Client(Browser)</text>
    </g>
    <g text-rendering="geometricPrecision" stroke-miterlimit="1.45" shape-rendering="geometricPrecision" transform="matrix(1,0,0,1,-215,-18)" stroke-linecap="butt">
      <rect fill="none" x="1053" width="347" height="209.6667" y="33.8333" clip-path="url(#clipPath2)"/>
    </g>
    <g fill="aqua" text-rendering="geometricPrecision" shape-rendering="geometricPrecision" transform="matrix(1,0,0,1,-215,-18)" stroke="aqua">
      <rect x="1083.75" width="83" height="69" y="47.3333" clip-path="url(#clipPath2)" stroke="none"/>
    </g>
    <g text-rendering="geometricPrecision" stroke-miterlimit="1.45" shape-rendering="geometricPrecision" font-family="sans-serif" transform="matrix(1,0,0,1,-215,-18)" stroke-linecap="butt">
      <text x="1105.5801" xml:space="preserve" y="86.5472" clip-path="url(#clipPath2)" stroke="none">HTML5</text>
      <rect fill="none" x="1083.75" width="83" height="69" y="47.3333" clip-path="url(#clipPath2)"/>
    </g>
    <g fill="aqua" text-rendering="geometricPrecision" shape-rendering="geometricPrecision" transform="matrix(1,0,0,1,-215,-18)" stroke="aqua">
      <rect x="1210.75" width="83" height="69" y="47.3333" clip-path="url(#clipPath2)" stroke="none"/>
    </g>
    <g text-rendering="geometricPrecision" stroke-miterlimit="1.45" shape-rendering="geometricPrecision" font-family="sans-serif" transform="matrix(1,0,0,1,-215,-18)" stroke-linecap="butt">
      <text x="1236.5762" xml:space="preserve" y="86.5472" clip-path="url(#clipPath2)" stroke="none">CSS3</text>
      <rect fill="none" x="1210.75" width="83" height="69" y="47.3333" clip-path="url(#clipPath2)"/>
    </g>
    <g fill="aqua" text-rendering="geometricPrecision" shape-rendering="geometricPrecision" transform="matrix(1,0,0,1,-215,-18)" stroke="aqua">
      <rect x="1083.75" width="83" height="69" y="146.3333" clip-path="url(#clipPath2)" stroke="none"/>
    </g>
    <g text-rendering="geometricPrecision" stroke-miterlimit="1.45" shape-rendering="geometricPrecision" font-family="sans-serif" transform="matrix(1,0,0,1,-215,-18)" stroke-linecap="butt">
      <text x="1097.2393" xml:space="preserve" y="185.5472" clip-path="url(#clipPath2)" stroke="none">JavaScript</text>
      <rect fill="none" x="1083.75" width="83" height="69" y="146.3333" clip-path="url(#clipPath2)"/>
    </g>
    <g fill="aqua" text-rendering="geometricPrecision" shape-rendering="geometricPrecision" transform="matrix(1,0,0,1,-215,-18)" stroke="aqua">
      <rect x="1210.75" width="83" height="69" y="146.3333" clip-path="url(#clipPath2)" stroke="none"/>
    </g>
    <g text-rendering="geometricPrecision" stroke-miterlimit="1.45" shape-rendering="geometricPrecision" font-family="sans-serif" transform="matrix(1,0,0,1,-215,-18)" stroke-linecap="butt">
      <text x="1220.8994" xml:space="preserve" y="178.1966" clip-path="url(#clipPath2)" stroke="none">Responsive</text>
      <text x="1233.5732" xml:space="preserve" y="192.8978" clip-path="url(#clipPath2)" stroke="none">Design</text>
      <rect fill="none" x="1210.75" width="83" height="69" y="146.3333" clip-path="url(#clipPath2)"/>
    </g>
    <g fill="lime" text-rendering="geometricPrecision" shape-rendering="geometricPrecision" transform="matrix(1,0,0,1,-215,-18)" stroke="lime">
      <rect x="272.75" width="247" height="77" y="56.3333" clip-path="url(#clipPath2)" stroke="none"/>
    </g>
    <g text-rendering="geometricPrecision" stroke-miterlimit="1.45" shape-rendering="geometricPrecision" font-family="sans-serif" transform="matrix(1,0,0,1,-215,-18)" stroke-linecap="butt">
      <text x="358.5625" xml:space="preserve" y="99.5472" clip-path="url(#clipPath2)" stroke="none">Facebook API</text>
      <rect fill="none" x="272.75" width="247" height="77" y="56.3333" clip-path="url(#clipPath2)"/>
    </g>
    <g fill="lime" text-rendering="geometricPrecision" shape-rendering="geometricPrecision" transform="matrix(1,0,0,1,-215,-18)" stroke="lime">
      <rect x="272.75" width="247" height="77" y="144.3065" clip-path="url(#clipPath2)" stroke="none"/>
    </g>
    <g text-rendering="geometricPrecision" stroke-miterlimit="1.45" shape-rendering="geometricPrecision" font-family="sans-serif" transform="matrix(1,0,0,1,-215,-18)" stroke-linecap="butt">
      <text x="351.8857" xml:space="preserve" y="187.5204" clip-path="url(#clipPath2)" stroke="none">SoundCloud API</text>
      <rect fill="none" x="272.75" width="247" height="77" y="144.3065" clip-path="url(#clipPath2)"/>
    </g>
    <g fill="lime" text-rendering="geometricPrecision" shape-rendering="geometricPrecision" transform="matrix(1,0,0,1,-215,-18)" stroke="lime">
      <rect x="549.75" width="247" height="77" y="56.3333" clip-path="url(#clipPath2)" stroke="none"/>
    </g>
    <g text-rendering="geometricPrecision" stroke-miterlimit="1.45" shape-rendering="geometricPrecision" font-family="sans-serif" transform="matrix(1,0,0,1,-215,-18)" stroke-linecap="butt">
      <text x="643.9121" xml:space="preserve" y="99.5472" clip-path="url(#clipPath2)" stroke="none">Twitter API</text>
      <rect fill="none" x="549.75" width="247" height="77" y="56.3333" clip-path="url(#clipPath2)"/>
    </g>
    <g fill="lime" text-rendering="geometricPrecision" shape-rendering="geometricPrecision" transform="matrix(1,0,0,1,-215,-18)" stroke="lime">
      <rect x="549.75" width="247" height="77" y="144.3065" clip-path="url(#clipPath2)" stroke="none"/>
    </g>
    <g text-rendering="geometricPrecision" stroke-miterlimit="1.45" shape-rendering="geometricPrecision" font-family="sans-serif" transform="matrix(1,0,0,1,-215,-18)" stroke-linecap="butt">
      <text x="639.5586" xml:space="preserve" y="187.5204" clip-path="url(#clipPath2)" stroke="none">Youtube API</text>
      <rect fill="none" x="549.75" width="247" height="77" y="144.3065" clip-path="url(#clipPath2)"/>
      <rect fill="none" x="249.75" width="347" height="314" y="360.625" clip-path="url(#clipPath2)"/>
      <rect fill="none" x="609.75" width="649" height="209.6667" y="360.625" clip-path="url(#clipPath2)"/>
      <path fill="none" d="M930.25 655.2917 L930.25 783.7828" clip-path="url(#clipPath2)"/>
      <path d="M930.25 791.7828 L935.25 779.7828 L930.25 782.7828 L925.25 779.7828 Z" clip-path="url(#clipPath2)" stroke="none"/>
    </g>
    <g font-size="16px" stroke-linecap="butt" transform="matrix(0,1,-1,0,704.8008,690.8255)" text-rendering="geometricPrecision" font-family="sans-serif" shape-rendering="geometricPrecision" stroke-miterlimit="1.45">
      <text x="2" xml:space="preserve" y="18.0859" clip-path="url(#clipPath8)" stroke="none">SQL</text>
    </g>
    <g text-rendering="geometricPrecision" stroke-miterlimit="1.45" shape-rendering="geometricPrecision" transform="matrix(1,0,0,1,-215,-18)" stroke-linecap="butt">
      <path fill="none" d="M1226.5 321.7776 L1226.5 251.5" clip-path="url(#clipPath2)"/>
      <path d="M1226.5 243.5 L1221.5 255.5 L1226.5 252.5 L1231.5 255.5 Z" clip-path="url(#clipPath2)" stroke="none"/>
      <path fill="none" d="M1226.5 243.5 L1226.5 313.8004" clip-path="url(#clipPath2)"/>
      <path d="M1226.5 321.8004 L1231.5 309.8004 L1226.5 312.8004 L1221.5 309.8004 Z" clip-path="url(#clipPath2)" stroke="none"/>
      <text x="1180.835" xml:space="preserve" y="287.3597" clip-path="url(#clipPath2)" font-family="sans-serif" stroke="none">HTTP</text>
      <path fill="none" d="M423.25 360.625 L423.25 251.4804" clip-path="url(#clipPath2)"/>
      <path d="M423.25 243.4804 L418.25 255.4804 L423.25 252.4804 L428.25 255.4804 Z" clip-path="url(#clipPath2)" stroke="none"/>
    </g>
    <g font-size="15px" stroke-linecap="butt" transform="matrix(0,-1,1,0,178.0618,283.7508)" text-rendering="geometricPrecision" font-family="sans-serif" shape-rendering="geometricPrecision" stroke-miterlimit="1.45">
      <text x="2" xml:space="preserve" y="17.0806" clip-path="url(#clipPath9)" stroke="none">GET</text>
    </g>
    <g text-rendering="geometricPrecision" stroke-miterlimit="1.45" shape-rendering="geometricPrecision" transform="matrix(1,0,0,1,-215,-18)" stroke-linecap="butt">
      <path fill="none" d="M931.5932 570.2917 L931.2637 583.2943" clip-path="url(#clipPath2)"/>
      <path d="M931.061 591.2917 L936.3634 579.4222 L931.289 582.2946 L926.3666 579.1688 Z" clip-path="url(#clipPath2)" stroke="none"/>
    </g>
  </g>
</svg>
